<svg id="Layer_1" height="512" viewBox="0 0 55 55" width="512" xmlns="http://www.w3.org/2000/svg" data-name="Layer 1"><path d="m47.41 41.66a.74.74 0 0 1 -.62-.33 23.26 23.26 0 0 0 -38.58 0 .74.74 0 0 1 -.62.33.74.74 0 0 1 -.59-.33 24.75 24.75 0 1 1 41.06 0 .74.74 0 0 1 -.62.33zm-19.91-37.41a23.26 23.26 0 0 0 -19.88 35.32 24.76 24.76 0 0 1 39.76 0 23.26 23.26 0 0 0 -19.88-35.32z"/><path d="m27.5 52.25a24.73 24.73 0 0 1 -20.5-10.92.76.76 0 0 1 0-.84 24.76 24.76 0 0 1 41.06 0 .76.76 0 0 1 0 .84 24.75 24.75 0 0 1 -20.56 10.92zm-19-11.34a23.26 23.26 0 0 0 38 0 23.26 23.26 0 0 0 -38 0z"/><path d="m27.5 27a9 9 0 1 1 9-9 9 9 0 0 1 -9 9zm0-16.54a7.52 7.52 0 1 0 7.5 7.48 7.52 7.52 0 0 0 -7.5-7.52z"/></svg>